<svg width="80" height="80" viewBox="0 0 80 80" fill="none" xmlns="http://www.w3.org/2000/svg">
<circle cx="40" cy="40" r="40" fill="url(#paint0_linear_4_12)"/>
<path d="M39.2125 17.9091H44.5102V22.7364L33.9966 35.7045C32.7284 37.2864 31.6443 38.7318 30.7443 40.0409C29.8579 41.3364 29.1761 42.5977 28.6989 43.825C28.2352 45.0386 28.0034 46.3273 28.0034 47.6909C28.0034 48.9454 28.4261 50.0295 29.2716 50.9432C30.1307 51.8432 31.3579 52.5182 32.9534 52.9682L35.2034 53.6227C37.9579 54.3864 40.0579 55.4227 41.5034 56.7318C42.9489 58.0273 43.6716 59.4932 43.6716 61.1295C43.6716 62.7659 43.0784 64.4159 41.892 66.0795C40.7193 67.7432 39.0352 69.3182 36.8398 70.8045L32.4625 67.5318C33.3489 66.6454 33.9966 65.8 34.4057 64.9954C34.8284 64.1909 35.0534 63.4818 35.0807 62.8682C35.1079 62.2818 34.842 61.75 34.2829 61.2727C33.7375 60.8091 32.9466 60.4409 31.9102 60.1682L29.8034 59.6364C26.5443 58.8318 24.042 57.5159 22.2966 55.6886C20.5648 53.8614 19.6989 51.6454 19.6989 49.0409C19.6989 47.2545 19.8693 45.6523 20.2102 44.2341C20.5511 42.8159 21.0557 41.4795 21.7239 40.225C22.392 38.9568 23.2102 37.6818 24.1784 36.4C25.1466 35.1045 26.2579 33.7 27.5125 32.1864L39.2125 17.9091ZM17.5511 17.9091H40.6852V25.15H17.5511V17.9091Z" fill="white"/>
<path d="M44.9057 56.6V25.1818H57.3011C59.6841 25.1818 61.7142 25.6369 63.3915 26.5472C65.0687 27.4472 66.3471 28.7 67.2267 30.3057C68.1165 31.9011 68.5614 33.7421 68.5614 35.8284C68.5614 37.9148 68.1114 39.7557 67.2114 41.3511C66.3114 42.9466 65.0074 44.1892 63.2994 45.079C61.6017 45.9688 59.546 46.4136 57.1324 46.4136H49.2318V41.0903H56.0585C57.3369 41.0903 58.3903 40.8705 59.2187 40.4307C60.0574 39.9807 60.6812 39.3619 61.0903 38.5744C61.5096 37.7767 61.7193 36.8614 61.7193 35.8284C61.7193 34.7852 61.5096 33.875 61.0903 33.0977C60.6812 32.3102 60.0574 31.7017 59.2187 31.2722C58.3801 30.8324 57.3165 30.6125 56.0278 30.6125H51.5483V56.6H44.9057Z" fill="white"/>
<defs>
<linearGradient id="paint0_linear_4_12" x1="40" y1="0" x2="40" y2="80" gradientUnits="userSpaceOnUse">
<stop/>
<stop offset="1" stop-color="#666666"/>
</linearGradient>
</defs>
</svg>
